<svg width="1200" height="760" viewBox="0 0 1200 760" fill="none" xmlns="http://www.w3.org/2000/svg">
  <rect width="1200" height="760" fill="#0C1015"/>
  <circle cx="1010" cy="170" r="220" fill="#4C7DFF" fill-opacity="0.18"/>
  <rect x="44" y="44" width="1112" height="672" rx="32" fill="#12161B" stroke="rgba(255,255,255,0.12)"/>
  <rect x="92" y="120" width="240" height="42" rx="21" fill="#4C7DFF" fill-opacity="0.16"/>
  <text x="116" y="148" fill="#DAE4FF" font-family="Arial, sans-serif" font-size="26" letter-spacing="4">REACT UI</text>
  <text x="92" y="280" fill="#F3F4F6" font-family="Arial, sans-serif" font-size="72" font-weight="700">Control Center</text>
  <text x="92" y="352" fill="#A7B0BA" font-family="Arial, sans-serif" font-size="28">Componentização, estados e clareza de uso para interfaces administrativas.</text>
  <rect x="92" y="430" width="420" height="220" rx="28" fill="#10151B" stroke="rgba(255,255,255,0.08)"/>
  <rect x="544" y="430" width="544" height="220" rx="28" fill="#10151B" stroke="rgba(255,255,255,0.08)"/>
  <rect x="132" y="474" width="220" height="24" rx="12" fill="rgba(255,255,255,0.1)"/>
  <rect x="132" y="520" width="320" height="18" rx="9" fill="rgba(255,255,255,0.06)"/>
  <rect x="132" y="552" width="260" height="18" rx="9" fill="rgba(255,255,255,0.06)"/>
  <rect x="586" y="478" width="464" height="22" rx="11" fill="rgba(76,125,255,0.18)"/>
  <rect x="586" y="530" width="300" height="20" rx="10" fill="rgba(255,255,255,0.08)"/>
  <rect x="906" y="530" width="144" height="20" rx="10" fill="rgba(198,139,89,0.14)"/>
</svg>
